<?xml version="1.0" encoding="utf-8"?>
<!-- Generator: Adobe Illustrator 26.0.2, SVG Export Plug-In . SVG Version: 6.00 Build 0)  -->
<!DOCTYPE svg PUBLIC "-//W3C//DTD SVG 1.1//EN" "http://www.w3.org/Graphics/SVG/1.1/DTD/svg11.dtd" [
	<!ENTITY ns_extend "http://ns.adobe.com/Extensibility/1.0/">
	<!ENTITY ns_ai "http://ns.adobe.com/AdobeIllustrator/10.0/">
	<!ENTITY ns_graphs "http://ns.adobe.com/Graphs/1.0/">
	<!ENTITY ns_vars "http://ns.adobe.com/Variables/1.0/">
	<!ENTITY ns_imrep "http://ns.adobe.com/ImageReplacement/1.0/">
	<!ENTITY ns_sfw "http://ns.adobe.com/SaveForWeb/1.0/">
	<!ENTITY ns_custom "http://ns.adobe.com/GenericCustomNamespace/1.0/">
	<!ENTITY ns_adobe_xpath "http://ns.adobe.com/XPath/1.0/">
]>
<svg version="1.1" id="Calque_1" xmlns:x="&ns_extend;" xmlns:i="&ns_ai;" xmlns:graph="&ns_graphs;"
	 xmlns="http://www.w3.org/2000/svg" xmlns:xlink="http://www.w3.org/1999/xlink" x="0px" y="0px" viewBox="0 0 473.9 512"
	 style="enable-background:new 0 0 473.9 512;" xml:space="preserve">
<metadata>
	<sfw  xmlns="&ns_sfw;">
		<slices></slices>
		<sliceSourceBounds  bottomLeftOrigin="true" height="512" width="473.9" x="0" y="-512"></sliceSourceBounds>
	</sfw>
</metadata>
<g>
	<path d="M324.6,261.4c-4.3,16.2-6.3,29.4-6.1,39.6s1.9,18.1,5,23.9c3.1,5.8,7.4,9.7,13,11.7c5.6,2,11.6,3,18.3,3
		c10.5,0,20.4-3,29.8-9c9.4-6,17.7-14.4,24.8-25.3c7.2-10.9,12.8-24,17-39.2c4.2-15.3,6.3-32.2,6.3-50.8c0-29.5-4.7-55.3-14.1-77.5
		S396.1,97,379.5,82.2c-16.6-14.8-36.1-26-58.6-33.3c-22.5-7.4-46.8-11.1-72.9-11.1c-28.6,0-55.4,5.4-80.4,16.3s-46.8,26-65.4,45.2
		c-18.6,19.2-33.3,42-44,68.3C47.4,193.8,42,222.5,42,253.4c0,36.3,5.7,68.2,17.1,95.6c11.4,27.4,27,50.5,46.8,69
		c19.8,18.6,43,32.6,69.7,42c26.7,9.4,55.3,14.1,85.9,14.1c32.5,0,61.1-3.5,86-10.6c24.9-7.1,46.4-16,64.6-26.9
		c4.3-2.6,8-3.4,11.2-2.4c3.2,1,5.6,3.4,7,7.2l8.3,21.2c-23.1,15.4-49.2,27.4-78.3,36.2c-29.2,8.8-62.1,13.1-98.8,13.1
		c-37.2,0-71.7-5.9-103.5-17.6c-31.8-11.8-59.4-28.7-82.8-50.8c-23.4-22.1-41.8-49.2-55.1-81.2S0,294,0,253.4
		c0-23.3,2.9-45.7,8.8-67.3s14.1-41.7,24.8-60.4S57.1,90,72.1,74.5c14.9-15.5,31.6-28.7,50-39.7c18.4-11,38.2-19.5,59.4-25.6
		C202.8,3,224.9,0,248,0c19.6,0,38.9,2.1,57.7,6.4c18.8,4.3,36.6,10.6,53.3,18.9c16.8,8.3,32.1,18.7,46.1,30.9
		c14,12.3,26.1,26.4,36.4,42.3c10.3,15.9,18.2,33.6,23.9,53.2c5.7,19.5,8.5,40.7,8.5,63.6c0,23.1-3.3,44.4-9.8,63.9
		c-6.5,19.5-15.5,36.5-26.9,50.8c-11.4,14.3-24.9,25.5-40.5,33.6c-15.6,8.1-32.4,12.2-50.3,12.2c-16.2,0-29.6-4-40.2-12
		c-10.6-8-17.4-20.2-20.3-36.7c-12.2,17.1-25.5,29.4-40.1,36.9c-14.5,7.5-30.2,11.2-47.1,11.2c-12.6,0-23.7-2.2-33.2-6.6
		c-9.5-4.4-17.4-10.5-23.5-18.3c-6.2-7.8-10.8-17-13.9-27.7c-3.1-10.7-4.6-22.2-4.6-34.6c0-18.1,3.5-36.5,10.4-54.9
		c6.9-18.5,17.2-35.1,30.9-50c13.7-14.8,30.6-27,50.9-36.4c20.3-9.4,43.8-14.1,70.5-14.1c14.3,0,26.9,1.1,37.8,3.4
		c10.9,2.2,21.2,5.5,30.8,9.8L324.6,261.4z M304.7,172c-8.3-1.9-17.5-2.9-27.5-2.9c-16,0-30.7,3.4-44.1,10.1
		c-13.3,6.7-24.8,15.5-34.4,26.4c-9.6,10.9-17.1,23.4-22.6,37.5c-5.4,14.1-8.2,28.5-8.2,43.2c0,15.4,3.5,27.7,10.6,37
		s17.5,13.9,31.4,13.9c6.6,0,13.3-1.1,20-3.2s13.2-5.9,19.5-11.2c6.3-5.3,12.1-12.6,17.5-21.8c5.3-9.2,9.8-20.7,13.5-34.6L304.7,172
		z"/>
</g>
</svg>
